<svg width="38" height="38" viewBox="0 0 38 38" fill="none" xmlns="http://www.w3.org/2000/svg">
<g clip-path="url(#clip0_84_7265)">
<path d="M19 0.000976562C8.50769 0.000976562 0 8.507 0 19.0001C0 29.4933 8.50685 37.9993 19 37.9993C29.494 37.9993 38 29.4933 38 19.0001C38 8.507 29.494 0.000976562 19 0.000976562ZM19 5.68195C22.4718 5.68195 25.2852 8.49614 25.2852 11.9663C25.2852 15.4373 22.4718 18.2507 19 18.2507C15.5298 18.2507 12.7165 15.4373 12.7165 11.9663C12.7165 8.49614 15.5298 5.68195 19 5.68195ZM18.9958 33.0319C15.5332 33.0319 12.3618 31.7709 9.91562 29.6836C9.31973 29.1753 8.97589 28.43 8.97589 27.648C8.97589 24.1286 11.8243 21.3119 15.3445 21.3119H22.6571C26.1782 21.3119 29.0158 24.1286 29.0158 27.648C29.0158 28.4309 28.6736 29.1745 28.0769 29.6827C25.6316 31.7709 22.4593 33.0319 18.9958 33.0319Z" fill="white"/>
</g>
<defs>
<clipPath id="clip0_84_7265">
<rect width="38" height="38" fill="white"/>
</clipPath>
</defs>
</svg>
