<svg width="821" height="556" viewBox="0 0 821 556" fill="none" xmlns="http://www.w3.org/2000/svg">
<mask id="mask0_84_12721" style="mask-type:alpha" maskUnits="userSpaceOnUse" x="-352" y="0" width="1173" height="556">
<g clipPath="url(#clip0_84_12721)">
<path d="M654.253 300.764C654.253 448.024 861.929 579.542 982.034 579.542C1102.14 579.542 1852.55 63.0447 1852.55 -84.2152C1852.55 -231.475 774.359 -28.7445 654.253 -28.7445C534.147 -28.7445 654.253 153.504 654.253 300.764Z" fill="url(#paint0_linear_84_12721)"/>
<path d="M569.156 1015.95C569.156 1163.21 666.521 1282.58 786.627 1282.58C906.732 1282.58 1575.82 1248.26 1575.82 1101C1575.82 953.738 1573.62 567.416 1453.51 567.416C1136.25 736.749 879.217 488.609 669.128 582.986C490.753 663.116 606.124 907.406 569.156 1015.95Z" fill="url(#paint1_radial_84_12721)"/>
<path d="M322.461 385.324C-1.60483 678.012 148.094 530.924 -130.25 523.514C-173.915 531.925 -248.042 532.325 -195.229 466.634C-129.213 384.519 -150.489 326.521 -67.9871 237.057C14.5152 147.593 64.7596 56.6994 189.315 -85.5907C313.871 -227.881 323.453 -110.587 463.873 -121.706C604.294 -132.825 540.248 -115.168 733.992 91.2894C927.736 297.746 646.527 92.6353 322.461 385.324Z" fill="#D9D9D9"/>
<path d="M628.407 845.706C1062.09 896.764 852.811 881.005 1030.57 1095.32C1065.66 1122.64 1114.78 1178.15 1030.57 1181.68C925.302 1186.09 895.675 1240.3 774.018 1237.15C652.361 1234 550.874 1256.06 361.77 1256.06C172.665 1256.06 254.61 1171.6 153.755 1073.26C52.8988 974.927 108.369 1011.49 136.105 729.722C163.84 447.956 194.727 794.648 628.407 845.706Z" fill="#D9D9D9"/>
</g>
</mask>
<g mask="url(#mask0_84_12721)">
<line y1="-0.630349" x2="1511.58" y2="-0.630349" transform="matrix(-1 0 0 1 1444.08 368.532)" stroke="white" stroke-opacity="0.09" stroke-width="1.2607"/>
<line y1="-0.630349" x2="1511.58" y2="-0.630349" transform="matrix(-1 0 0 1 1444.08 45.7919)" stroke="white" stroke-opacity="0.09" stroke-width="1.2607"/>
<line y1="-0.630349" x2="1511.58" y2="-0.630349" transform="matrix(-1 0 0 1 1444.08 529.9)" stroke="white" stroke-opacity="0.09" stroke-width="1.2607"/>
<line y1="-0.630349" x2="1511.58" y2="-0.630349" transform="matrix(-1 0 0 1 1444.08 207.162)" stroke="white" stroke-opacity="0.09" stroke-width="1.2607"/>
<line y1="-0.630349" x2="1511.58" y2="-0.630349" transform="matrix(-1 0 0 1 1444.08 287.847)" stroke="white" stroke-opacity="0.09" stroke-width="1.2607"/>
<line y1="-0.630349" x2="1511.58" y2="-0.630349" transform="matrix(-1 0 0 1 1444.08 449.215)" stroke="white" stroke-opacity="0.09" stroke-width="1.2607"/>
<line y1="-0.630349" x2="1511.58" y2="-0.630349" transform="matrix(-1 0 0 1 1444.08 126.477)" stroke="white" stroke-opacity="0.09" stroke-width="1.2607"/>
<line y1="-0.630349" x2="1167.41" y2="-0.630349" transform="matrix(4.37114e-08 1 1 -4.37114e-08 751.951 16.7971)" stroke="white" stroke-opacity="0.09" stroke-width="1.2607"/>
<line y1="-0.630349" x2="1167.41" y2="-0.630349" transform="matrix(4.37114e-08 1 1 -4.37114e-08 429.216 16.7971)" stroke="white" stroke-opacity="0.09" stroke-width="1.2607"/>
<line y1="-0.630349" x2="1167.41" y2="-0.630349" transform="matrix(4.37114e-08 1 1 -4.37114e-08 106.475 16.7971)" stroke="white" stroke-opacity="0.09" stroke-width="1.2607"/>
<line y1="-0.630349" x2="1167.41" y2="-0.630349" transform="matrix(4.37114e-08 1 1 -4.37114e-08 590.586 16.7971)" stroke="white" stroke-opacity="0.09" stroke-width="1.2607"/>
<line y1="-0.630349" x2="1167.41" y2="-0.630349" transform="matrix(4.37114e-08 1 1 -4.37114e-08 267.845 16.7969)" stroke="white" stroke-opacity="0.09" stroke-width="1.2607"/>
<line y1="-0.630349" x2="1167.41" y2="-0.630349" transform="matrix(4.37114e-08 1 1 -4.37114e-08 671.269 16.7969)" stroke="white" stroke-opacity="0.09" stroke-width="1.2607"/>
<line y1="-0.630349" x2="1167.41" y2="-0.630349" transform="matrix(4.37114e-08 1 1 -4.37114e-08 348.528 16.7971)" stroke="white" stroke-opacity="0.09" stroke-width="1.2607"/>
<line y1="-0.630349" x2="1167.41" y2="-0.630349" transform="matrix(4.37114e-08 1 1 -4.37114e-08 25.7924 16.7971)" stroke="white" stroke-opacity="0.09" stroke-width="1.2607"/>
<line y1="-0.630349" x2="1167.41" y2="-0.630349" transform="matrix(4.37114e-08 1 1 -4.37114e-08 509.898 16.7971)" stroke="white" stroke-opacity="0.09" stroke-width="1.2607"/>
<line y1="-0.630349" x2="1167.41" y2="-0.630349" transform="matrix(4.37114e-08 1 1 -4.37114e-08 187.162 16.7971)" stroke="white" stroke-opacity="0.09" stroke-width="1.2607"/>
</g>
<defs>
<linearGradient id="paint0_linear_84_12721" x1="1333.14" y1="-10.4643" x2="878.657" y2="231.59" gradientUnits="userSpaceOnUse">
<stop stop-color="white"/>
<stop offset="1" stop-color="white" stop-opacity="0"/>
</linearGradient>
<radialGradient id="paint1_radial_84_12721" cx="0" cy="0" r="1" gradientUnits="userSpaceOnUse" gradientTransform="translate(1256.87 1022.2) rotate(-150.607) scale(777.019 1335.47)">
<stop stop-color="white"/>
<stop offset="1" stop-color="white" stop-opacity="0"/>
</radialGradient>
<clipPath id="clip0_84_12721">
<rect width="1173" height="555.848" fill="white" transform="matrix(-1 0 0 1 821 0)"/>
</clipPath>
</defs>
</svg>
