<svg width="139" height="46" viewBox="0 0 139 46" fill="none" xmlns="http://www.w3.org/2000/svg">
<g clipPath="url(#clip0_73_5944)">
<path d="M-0.0727539 32.7155V6.77148H6.8955C8.75613 6.77148 10.1425 7.21309 10.9816 8.13309C11.8207 9.05309 12.2585 10.5619 12.2585 12.6963V13.8371C12.2585 15.0515 12.0396 16.0451 11.6018 16.8179C11.164 17.5907 10.5073 18.0691 9.63172 18.2899C10.7992 18.5843 11.5653 19.2835 11.9666 20.3507C12.3679 21.4547 12.5504 22.7427 12.5504 24.3251C12.5504 25.9075 12.4044 27.4899 12.0761 28.7411C11.7477 29.9923 11.2005 30.9859 10.3979 31.6851C9.59523 32.3843 8.42778 32.7155 6.8955 32.7155H-0.0727539ZM4.96189 16.5603H6.0199C6.49418 16.5603 6.78604 16.3763 6.93197 16.0083C7.07791 15.6403 7.15086 15.1987 7.15086 14.6835V12.0707C7.15086 11.2243 6.78603 10.8195 6.05638 10.8195H4.96189V16.5971V16.5603ZM5.47266 28.1523C6.82253 28.1523 7.47922 27.5267 7.47922 26.2387V23.0003C7.47922 22.2643 7.36976 21.6755 7.15086 21.2707C6.93197 20.8291 6.53067 20.6451 5.91046 20.6451H4.96189V28.1523C5.18078 28.1523 5.36321 28.1523 5.47266 28.1523Z" fill="white"/>
<path d="M14.2651 32.7155V6.77148H19.4092V28.2995H24.6993V32.7155H14.2651Z" fill="white"/>
<path d="M32.2875 32.9732C30.2444 32.9732 28.6757 32.3476 27.5812 31.0964C26.4867 29.8452 25.9395 28.042 25.9395 25.65V13.322C25.9395 11.114 26.4867 9.42119 27.5447 8.28039C28.6392 7.13959 30.208 6.55078 32.2875 6.55078C34.367 6.55078 35.9358 7.13959 37.0303 8.28039C38.1248 9.42119 38.6355 11.114 38.6355 13.322V25.65C38.6355 28.0052 38.0883 29.8452 36.9938 31.0964C35.8993 32.3476 34.3305 32.9732 32.2875 32.9732ZM32.324 28.1892C33.0901 28.1892 33.4914 27.4164 33.4914 25.9076V13.2484C33.4914 11.9604 33.1266 11.3348 32.3605 11.3348C31.5943 11.3348 31.0836 11.9972 31.0836 13.2852V25.9444C31.0836 26.754 31.193 27.3428 31.3754 27.674C31.5578 28.0052 31.8862 28.1892 32.324 28.1892Z" fill="white"/>
<path d="M46.6982 32.9725C44.8376 32.9725 43.3418 32.3837 42.2108 31.2061C41.0798 30.0285 40.4961 28.4093 40.4961 26.3117V14.3517C40.4961 11.8493 41.0068 9.89891 41.9919 8.57411C42.9769 7.24931 44.5822 6.58691 46.8076 6.58691C49.0331 6.58691 49.1061 6.80772 50.0546 7.24932C51.0032 7.69092 51.7693 8.39012 52.2801 9.27332C52.8273 10.1565 53.0827 11.2973 53.0827 12.6589V17.1485H47.9751V13.3213C47.9751 12.5485 47.8657 12.0333 47.6832 11.7389C47.5008 11.4813 47.1725 11.3341 46.7712 11.3341C46.3699 11.3341 45.9685 11.5181 45.8226 11.8493C45.6402 12.1805 45.5672 12.6589 45.5672 13.2477V26.2381C45.5672 26.9373 45.6767 27.4525 45.8956 27.7469C46.1145 28.0413 46.4063 28.1885 46.8076 28.1885C47.209 28.1885 47.5373 28.0045 47.7197 27.6365C47.9021 27.2685 47.9751 26.7901 47.9751 26.2381V21.5645H53.1557V26.4589C53.1557 28.7405 52.5719 30.3965 51.441 31.4269C50.31 32.4573 48.7048 32.9725 46.6617 32.9725H46.6982Z" fill="white"/>
<path d="M54.9072 32.7155V6.77148H59.9784V17.1491L62.3862 6.77148H67.5668L64.6847 18.6579L68.1505 32.7155H62.824L60.0148 20.1667V32.7155H54.9072Z" fill="white"/>
<path d="M75.155 32.9725C72.8201 32.9725 71.1054 32.3837 70.0839 31.2061C69.0624 30.0285 68.5151 28.1517 68.5151 25.5757V23.0365H73.5863V26.2749C73.5863 26.8637 73.6592 27.3421 73.8417 27.6733C74.0241 28.0045 74.3524 28.1885 74.7902 28.1885C75.228 28.1885 75.5928 28.0413 75.7753 27.7837C75.9577 27.5261 76.0306 27.0477 76.0306 26.4221C76.0306 25.7965 75.9577 24.9501 75.8117 24.4349C75.6658 23.8829 75.3739 23.4045 75.0091 22.8893C74.6078 22.4109 74.097 21.8221 73.4039 21.1965L71.1054 18.9885C69.3907 17.3325 68.5151 15.4557 68.5151 13.3581C68.5151 11.2605 69.0259 9.45732 70.0474 8.31652C71.0689 7.13892 72.5283 6.58691 74.4619 6.58691C76.3954 6.58691 78.475 7.21252 79.4965 8.50052C80.4816 9.75172 80.9923 11.7021 80.9923 14.2781H75.7753V12.5117C75.7753 12.1437 75.6658 11.8861 75.4834 11.7021C75.301 11.5181 75.0091 11.4077 74.6808 11.4077C74.3524 11.4077 73.9876 11.5181 73.7687 11.7389C73.5863 11.9597 73.4768 12.2541 73.4768 12.6221C73.4768 12.9901 73.5863 13.3949 73.7687 13.7997C73.9511 14.2045 74.3524 14.7197 74.9361 15.2717L77.8913 18.1421C78.475 18.6941 79.0222 19.3197 79.533 19.9453C80.0438 20.5709 80.4451 21.3069 80.7369 22.1533C81.0288 22.9997 81.1747 24.0301 81.1747 25.2445C81.1747 27.6733 80.7369 29.5869 79.8248 30.9853C78.9128 32.3837 77.3805 33.0461 75.155 33.0461V32.9725Z" fill="white"/>
<path d="M94.1993 35.4753L90.1132 32.7521C89.6389 32.8625 89.1647 32.9361 88.6539 32.9361C86.6473 32.9361 85.1151 32.3473 84.0571 31.1329C82.9991 29.9185 82.4883 28.1889 82.4883 25.8705V13.3217C82.4883 11.0769 83.0355 9.38407 84.13 8.24327C85.2245 7.06567 86.7933 6.51367 88.8363 6.51367C90.8794 6.51367 92.4481 7.10247 93.5426 8.24327C94.6371 9.42087 95.1844 11.1137 95.1844 13.3217V25.8705C95.1844 28.0049 94.7101 29.6977 93.7615 30.9121L95.9505 32.3105L94.1993 35.4017V35.4753ZM88.8363 28.1889C89.2012 28.1889 89.4565 28.0417 89.639 27.7841C89.7849 27.5265 89.8943 27.1585 89.9308 26.7537C89.9673 26.3489 90.0038 25.9809 90.0038 25.5761V13.4321C90.0038 12.8801 89.9308 12.4017 89.7849 11.9601C89.6389 11.5185 89.3106 11.2977 88.7998 11.2977C88.2891 11.2977 87.9607 11.5185 87.8148 11.9233C87.6689 12.3649 87.5959 12.8433 87.5959 13.3953V25.6497C87.5959 25.9809 87.5959 26.3489 87.6689 26.7537C87.7053 27.1585 87.8148 27.4529 87.9972 27.7473C88.1796 28.0049 88.4715 28.1521 88.8728 28.1521L88.8363 28.1889Z" fill="white"/>
<path d="M103.575 32.9724C101.423 32.9724 99.8541 32.3836 98.8326 31.1692C97.8111 29.9548 97.3003 28.1516 97.3003 25.7964V6.80762H102.298V25.6124C102.298 26.054 102.298 26.4588 102.371 26.8636C102.444 27.2684 102.517 27.5996 102.7 27.8572C102.882 28.1148 103.174 28.2252 103.539 28.2252C103.904 28.2252 104.232 28.1148 104.414 27.8572C104.597 27.5996 104.706 27.2684 104.743 26.8636C104.779 26.4588 104.816 26.054 104.816 25.6124V6.80762H109.814V25.7964C109.814 28.1516 109.303 29.9548 108.282 31.1692C107.26 32.3836 105.691 32.9724 103.539 32.9724H103.575Z" fill="white"/>
<path d="M111.091 32.7155L113.572 6.77148H122.291L124.735 32.7155H119.883L119.518 28.5203H116.417L116.089 32.7155H111.091ZM116.782 24.3987H119.117L117.986 11.1875H117.767L116.782 24.3987Z" fill="white"/>
<path d="M126.304 32.7155V6.77148H133.382C135.243 6.77148 136.629 7.28669 137.577 8.31709C138.526 9.34749 138.964 10.8563 138.964 12.8803V25.0243C138.964 27.4899 138.526 29.3667 137.687 30.7283C136.848 32.0531 135.352 32.7155 133.199 32.7155H126.304ZM131.485 28.1523H132.36C133.309 28.1523 133.783 27.6739 133.783 26.7539V13.3587C133.783 12.5123 133.674 11.9235 133.455 11.7027C133.236 11.4451 132.762 11.3347 132.069 11.3347H131.485V28.1523Z" fill="white"/>
<path d="M25.4654 30.6172C26.0491 30.6172 26.9977 32.4572 28.3111 36.1004H28.603C29.2961 35.3644 29.9528 33.8924 30.6095 31.758L32.0323 30.6172H32.8714L33.747 31.4636V32.6044L35.1699 41.2524C34.9145 42.614 34.5132 43.2764 34.0389 43.2764C32.9079 43.2764 32.1418 40.958 31.7405 36.358H31.4486C30.8284 36.358 30.0623 38.4924 29.1502 42.7244H28.3111C27.8368 42.7244 27.0707 40.59 26.0126 36.358C25.6113 36.358 25.0276 38.4924 24.2979 42.7244L23.167 43.5708H22.5833C22.109 43.5708 21.8171 43.2028 21.7441 42.43L24.2979 32.0524L25.4289 30.6172H25.4654Z" fill="#F32425"/>
<path d="M44.108 30.8018C46.7713 30.8018 48.2306 32.4946 48.4495 35.8434C47.355 40.9954 44.4728 43.5714 39.7665 43.5714H39.4382C36.9938 43.5714 35.7534 41.9889 35.7534 38.8609C35.7534 35.7329 37.8694 33.4513 42.1015 31.1329L44.108 30.8018ZM38.1248 40.5905L39.4382 40.9218C43.6702 40.0754 45.7862 38.5298 45.7862 36.2114C45.1295 34.629 44.1445 33.8562 42.7946 33.8562H42.4663C40.4232 34.9234 38.9639 36.9474 38.1248 39.9282V40.5905Z" fill="#F32425"/>
<path d="M50.748 30.6172C51.1493 30.654 53.0465 33.4508 56.4759 38.9708H56.7677L57.0596 38.6764V34.9228L56.7677 33.782C57.0231 32.6412 57.315 32.0524 57.6068 32.0524H58.4824C59.0661 32.1628 59.5404 33.414 59.9053 35.806C59.9053 39.3756 58.9567 41.7676 57.0596 43.0188H56.5124C54.7977 41.3996 53.4843 39.486 52.4992 37.2412H51.9155L51.6236 38.382L51.9155 42.982L51.0764 43.5708H50.7845C50.0914 43.5708 49.5076 42.5036 49.0698 40.406L49.6535 32.8988V31.758L50.7845 30.6172H50.748Z" fill="#F32425"/>
<path d="M68.8072 30.8018C71.4705 30.8018 72.9298 32.4946 73.1487 35.8434C72.0542 40.9954 69.1721 43.5714 64.4658 43.5714H64.1374C61.693 43.5714 60.4526 41.9889 60.4526 38.8609C60.4526 35.7329 62.5686 33.4513 66.8007 31.1329L68.8072 30.8018ZM62.824 40.5905L64.1374 40.9218C68.3694 40.0754 70.4854 38.5298 70.4854 36.2114C69.8288 34.629 68.8437 33.8562 67.4938 33.8562H67.1655C65.1224 34.9234 63.6631 36.9474 62.824 39.9282V40.5905Z" fill="#F32425"/>
<path d="M76.1038 30.6175L80.956 30.9119H81.2479C82.4518 31.7583 83.0721 32.7519 83.0721 33.9663C83.0721 35.8799 81.3573 37.6464 77.9279 39.1552H77.6361L78.2563 43.1295C78.2563 44.3807 77.7455 45.3007 76.724 45.8896H76.1038L75.1917 44.9696V42.5039C75.1917 41.3999 74.7904 40.5903 73.9878 40.0383C73.9878 33.7087 74.681 30.5439 76.1038 30.5439V30.6175ZM76.724 35.5119L77.0159 35.8063H78.2198C79.8251 35.8063 80.6642 34.9967 80.6642 33.3407L80.3723 33.0463V32.7519C77.9644 33.4143 76.724 34.3343 76.724 35.5119Z" fill="#F32425"/>
<path d="M90.9889 30.8018C93.6521 30.8018 95.1114 32.4946 95.3303 35.8434C94.2358 40.9954 91.3537 43.5714 86.6474 43.5714H86.319C83.8747 43.5714 82.6343 41.9889 82.6343 38.8609C82.6343 35.7329 84.7503 33.4513 88.9823 31.1329L90.9889 30.8018ZM85.0057 40.5905L86.319 40.9218C90.5511 40.0754 92.6671 38.5298 92.6671 36.2114C92.0104 34.629 91.0253 33.8562 89.6755 33.8562H89.3471C87.3041 34.9234 85.8448 36.9474 85.0057 39.9282V40.5905Z" fill="#F32425"/>
<path d="M97.4464 30.6169C98.0301 30.7273 98.2855 31.5001 98.2855 32.9353L97.4464 40.7001L101.459 39.5593H102.59L103.43 40.4057C101.715 42.5033 99.1611 43.5705 95.7317 43.5705L95.1479 42.7241V40.7001L96.2789 34.6281V32.6041C96.2789 31.5737 96.6438 30.9113 97.4099 30.5801L97.4464 30.6169Z" fill="#F32425"/>
<path d="M109.996 28.8877L111.456 30.3597C111.456 31.3533 110.398 33.7085 108.245 37.4253V41.8413C108.245 42.8717 107.953 43.4605 107.37 43.6077H107.078L105.91 42.4301V39.4861H105.326V39.1917L105.035 39.4861H103.283C102.116 38.7869 101.532 37.6093 101.532 35.9533V35.0701C101.824 32.1261 102.919 30.6541 104.743 30.6541L105.035 30.9485V32.1261L103.575 35.6589L103.867 36.5421C105.545 36.5421 107.37 34.0765 109.413 29.1821L109.704 28.8877H109.996Z" fill="#F32425"/>
</g>
<defs>
<clipPath id="clip0_73_5944">
<rect width="139" height="46" fill="white"/>
</clipPath>
</defs>
</svg>
